<svg version="1.1" id="Layer_1" xmlns="http://www.w3.org/2000/svg" xmlns:xlink="http://www.w3.org/1999/xlink" x="0px" y="0px"
	 width="100%" viewBox="0 0 500 500" enable-background="new 0 0 500 500" xml:space="preserve">
<path fill="#FFFFFF" opacity="1.000000" stroke="none" 
	d="
M291.000000,501.000000 
	C194.000031,501.000000 97.500046,501.000000 1.000052,501.000000 
	C1.000035,334.333405 1.000035,167.666794 1.000017,1.000141 
	C167.666565,1.000094 334.333130,1.000094 500.999756,1.000047 
	C500.999847,167.666519 500.999847,334.333038 500.999939,500.999786 
	C431.166656,501.000000 361.333344,501.000000 291.000000,501.000000 
M332.500000,299.005493 
	C363.258514,299.005493 394.017029,299.005493 424.825073,299.005493 
	C424.825073,266.775024 424.825073,235.050430 424.825073,203.221451 
	C308.740509,203.221451 192.893829,203.221451 76.963638,203.221451 
	C76.963638,235.217026 76.963638,266.985291 76.963638,299.005493 
	C161.946320,299.005493 246.723160,299.005493 332.500000,299.005493 
z"/>
<path fill="#030303" opacity="1.000000" stroke="none" 
	d="
M332.000000,299.005493 
	C246.723160,299.005493 161.946320,299.005493 76.963638,299.005493 
	C76.963638,266.985291 76.963638,235.217026 76.963638,203.221451 
	C192.893829,203.221451 308.740509,203.221451 424.825073,203.221451 
	C424.825073,235.050430 424.825073,266.775024 424.825073,299.005493 
	C394.017029,299.005493 363.258514,299.005493 332.000000,299.005493 
M186.500000,295.997559 
	C265.045349,295.997559 343.590668,295.997559 422.050354,295.997559 
	C422.050354,265.664307 422.050354,236.053528 422.050354,206.382812 
	C307.719604,206.382812 193.567871,206.382812 79.455612,206.382812 
	C79.455612,236.358917 79.455612,265.954102 79.455612,295.997559 
	C114.951515,295.997559 150.225754,295.997559 186.500000,295.997559 
z"/>
<path fill="#FDFDFD" opacity="1.000000" stroke="none" 
	d="
M186.000000,295.997559 
	C150.225754,295.997559 114.951515,295.997559 79.455612,295.997559 
	C79.455612,265.954102 79.455612,236.358917 79.455612,206.382812 
	C193.567871,206.382812 307.719604,206.382812 422.050354,206.382812 
	C422.050354,236.053528 422.050354,265.664307 422.050354,295.997559 
	C343.590668,295.997559 265.045349,295.997559 186.000000,295.997559 
M199.500000,290.000061 
	C216.575821,290.000061 233.651642,290.000061 250.621674,290.000061 
	C250.621674,263.623383 250.621674,238.017319 250.621674,212.281845 
	C195.669403,212.281845 140.948822,212.281845 86.283539,212.281845 
	C86.283539,238.303177 86.283539,264.041534 86.283539,290.000061 
	C123.880074,290.000061 161.190033,290.000061 199.500000,290.000061 
M288.340179,262.909546 
	C290.123291,262.909546 291.906403,262.909546 293.761597,262.909546 
	C293.761597,254.128036 293.761597,245.585648 293.761597,237.069138 
	C291.358154,237.069138 289.259247,237.069138 286.554382,237.069138 
	C286.554382,241.044174 286.554382,244.833328 286.554382,249.895264 
	C283.622070,245.997330 281.292603,243.378265 279.521423,240.424393 
	C277.350159,236.803253 274.522736,236.127228 270.756836,237.342041 
	C270.756836,245.847198 270.756836,254.233444 270.756836,262.766693 
	C273.216034,262.766693 275.451385,262.766693 278.092407,262.766693 
	C278.092407,258.674591 278.092407,254.798218 278.092407,249.888657 
	C281.720123,254.654846 284.689087,258.555573 288.340179,262.909546 
M397.686462,260.049133 
	C399.709930,265.389862 403.831238,262.250122 407.756317,262.986115 
	C406.908295,261.252258 406.564514,260.127045 405.895386,259.250061 
	C401.747589,253.813751 400.652435,248.299362 404.822632,242.283997 
	C405.806854,240.864365 406.077393,238.949966 406.682495,237.245560 
	C401.304932,235.892349 397.606384,236.742065 396.407318,242.922302 
	C396.118011,244.413513 393.567078,245.465942 392.056213,246.720154 
	C391.633484,246.400162 391.210785,246.080170 390.788086,245.760178 
	C390.788086,242.847321 390.788086,239.934479 390.788086,237.114029 
	C388.052704,237.114029 385.795929,237.114029 383.369751,237.114029 
	C383.369751,245.779083 383.369751,254.171265 383.369751,262.709930 
	C385.954865,262.709930 388.323578,262.709930 391.085754,262.709930 
	C391.085754,259.341980 391.085754,256.273987 391.085754,253.101868 
	C396.018738,252.834412 395.461792,257.204468 397.686462,260.049133 
M356.061493,253.550064 
	C354.954163,256.570404 353.846832,259.590759 352.550598,263.126373 
	C356.320038,262.450134 359.778717,264.584137 362.224091,260.092163 
	C362.912292,258.828003 369.821838,258.810242 370.518829,260.073761 
	C373.099884,264.752441 376.568512,262.519928 380.231964,262.905975 
	C377.330353,255.374390 374.585938,248.304581 371.887421,241.217300 
	C370.935638,238.717590 370.271942,236.646515 366.570374,236.659424 
	C362.857208,236.672379 361.827057,238.392105 360.848511,241.267227 
	C359.518066,245.176239 357.852234,248.971100 356.061493,253.550064 
M298.700653,262.989624 
	C301.489502,262.511871 304.720032,264.429016 306.822601,260.151733 
	C307.444946,258.885742 314.681671,258.784363 315.252136,259.941498 
	C317.697144,264.900879 321.382721,262.425934 325.028992,262.962921 
	C321.569214,254.058960 318.269989,245.568176 314.617249,236.167679 
	C311.925781,236.971054 307.741089,237.022141 307.000946,238.644577 
	C303.442108,246.445679 300.813293,254.671036 298.700653,262.989624 
M337.498840,263.016266 
	C339.093170,262.938446 340.687500,262.860626 342.824646,262.756348 
	C340.286560,252.269821 348.443817,245.715088 351.357391,237.436798 
	C343.200104,233.998642 341.590942,240.749771 338.821472,245.684875 
	C332.969543,236.097031 332.969543,236.097031 325.940186,237.518997 
	C326.256653,238.141098 326.554657,238.699936 326.828888,239.270187 
	C330.355347,246.603195 336.587189,252.960464 335.098328,262.134705 
	C335.064789,262.341370 336.065063,262.715759 337.498840,263.016266 
z"/>
<path fill="#020202" opacity="1.000000" stroke="none" 
	d="
M199.000000,290.000061 
	C161.190033,290.000061 123.880074,290.000061 86.283539,290.000061 
	C86.283539,264.041534 86.283539,238.303177 86.283539,212.281845 
	C140.948822,212.281845 195.669403,212.281845 250.621674,212.281845 
	C250.621674,238.017319 250.621674,263.623383 250.621674,290.000061 
	C233.651642,290.000061 216.575821,290.000061 199.000000,290.000061 
M226.956100,249.511642 
	C226.956100,245.395447 226.956100,241.279266 226.956100,237.151764 
	C224.123123,237.321228 224.123123,237.321228 223.000580,247.592133 
	C218.631790,247.592133 214.263596,247.592133 209.920593,247.592133 
	C209.534775,237.064346 209.534775,237.064346 206.372238,237.457245 
	C206.372238,245.908798 206.372238,254.351669 206.372238,264.115051 
	C212.255295,260.470154 208.003265,254.777740 210.442657,251.426712 
	C214.615997,251.426712 218.728699,251.426712 222.797821,251.426712 
	C224.699081,262.604736 224.699081,262.604736 226.956100,262.427124 
	C226.956100,258.467926 226.956100,254.484406 226.956100,249.511642 
M138.607834,247.755127 
	C141.586731,249.113739 144.513016,250.607986 147.560440,251.789871 
	C150.200165,252.813675 153.913239,253.504410 152.515152,257.038208 
	C151.858917,258.696899 148.031219,259.646118 145.556763,259.838959 
	C144.033966,259.957550 142.320099,258.087708 140.753555,257.020386 
	C139.678329,256.287811 138.708832,255.400024 136.780045,253.847534 
	C137.015182,259.420624 139.281601,261.931305 142.889572,262.862274 
	C147.152817,263.962311 151.580917,264.152740 154.930756,260.464325 
	C157.489777,257.646698 156.892944,252.969864 153.567505,250.929123 
	C151.357071,249.572601 148.591721,249.147110 146.286438,247.910324 
	C144.264999,246.825851 142.427277,245.299988 140.827911,243.657913 
	C140.636627,243.461517 142.463516,240.253036 143.332260,240.263855 
	C146.106964,240.298401 148.887161,241.128006 151.621811,241.821808 
	C152.035736,241.926819 152.065857,243.177917 152.541245,243.486679 
	C153.425018,244.060669 154.506012,244.330948 155.980865,244.916687 
	C154.500061,237.514633 149.595200,234.829712 142.734802,236.817841 
	C137.562485,238.316757 136.061234,241.683365 138.607834,247.755127 
M181.746033,244.225723 
	C182.963058,242.765961 184.166992,240.110565 185.399841,240.097076 
	C187.912704,240.069534 190.508850,241.307495 192.933777,242.344299 
	C194.096878,242.841568 194.948227,244.067886 196.661926,245.615204 
	C196.150192,238.600998 192.083649,235.492432 185.987549,236.321167 
	C182.156479,236.842026 178.690598,238.185257 178.102997,242.634140 
	C177.503281,247.174835 180.560165,249.166718 184.272568,250.473068 
	C186.770355,251.352005 189.411255,251.946915 191.726883,253.165375 
	C192.776535,253.717682 193.857300,255.562592 193.712799,256.661865 
	C193.560760,257.818176 192.115265,259.440735 190.965561,259.710236 
	C187.514801,260.519073 184.021408,260.709808 181.655045,257.013062 
	C180.997192,255.985382 179.645416,255.401917 178.611984,254.614670 
	C178.062424,256.571228 178.187134,257.743774 178.696060,258.714966 
	C180.769470,262.671722 185.894318,264.391937 191.417480,263.082489 
	C195.062958,262.218231 197.406525,260.090454 197.378922,256.170319 
	C197.342651,251.017883 193.269653,249.979111 189.451096,248.572113 
	C186.884659,247.626495 184.490585,246.213058 181.746033,244.225723 
M117.078728,237.279022 
	C113.562920,245.663895 110.047112,254.048767 106.066605,263.541931 
	C108.098564,262.819366 109.991409,262.605164 110.105385,262.035217 
	C111.323326,255.944611 115.881348,257.094360 120.080307,256.989929 
	C123.315155,256.909454 125.845116,257.163849 126.845406,260.975677 
	C127.111031,261.987854 128.994995,262.575348 130.135895,263.357849 
	C127.692245,254.844833 124.709793,247.295242 121.426590,239.878784 
	C120.858215,238.594879 119.016113,237.874847 117.078728,237.279022 
M168.948639,254.432587 
	C168.948639,248.647293 168.948639,242.862000 168.948639,237.076706 
	C168.471802,236.872009 167.994949,236.667313 167.518112,236.462616 
	C166.867630,237.476913 165.678162,238.478363 165.653656,239.507568 
	C165.487259,246.492554 165.484329,253.485519 165.664246,260.469849 
	C165.688446,261.409851 167.033615,262.315857 167.767105,263.237610 
	C168.160950,262.945312 168.554794,262.653015 168.948639,262.360718 
	C168.948639,260.041595 168.948639,257.722473 168.948639,254.432587 
z"/>
<path fill="#020202" opacity="1.000000" stroke="none" 
	d="
M287.999146,262.682922 
	C284.689087,258.555573 281.720123,254.654846 278.092407,249.888657 
	C278.092407,254.798218 278.092407,258.674591 278.092407,262.766693 
	C275.451385,262.766693 273.216034,262.766693 270.756836,262.766693 
	C270.756836,254.233444 270.756836,245.847198 270.756836,237.342041 
	C274.522736,236.127228 277.350159,236.803253 279.521423,240.424393 
	C281.292603,243.378265 283.622070,245.997330 286.554382,249.895264 
	C286.554382,244.833328 286.554382,241.044174 286.554382,237.069138 
	C289.259247,237.069138 291.358154,237.069138 293.761597,237.069138 
	C293.761597,245.585648 293.761597,254.128036 293.761597,262.909546 
	C291.906403,262.909546 290.123291,262.909546 287.999146,262.682922 
z"/>
<path fill="#0A0A0A" opacity="1.000000" stroke="none" 
	d="
M397.466980,259.717590 
	C395.461792,257.204468 396.018738,252.834412 391.085754,253.101868 
	C391.085754,256.273987 391.085754,259.341980 391.085754,262.709930 
	C388.323578,262.709930 385.954865,262.709930 383.369751,262.709930 
	C383.369751,254.171265 383.369751,245.779083 383.369751,237.114029 
	C385.795929,237.114029 388.052704,237.114029 390.788086,237.114029 
	C390.788086,239.934479 390.788086,242.847321 390.788086,245.760178 
	C391.210785,246.080170 391.633484,246.400162 392.056213,246.720154 
	C393.567078,245.465942 396.118011,244.413513 396.407318,242.922302 
	C397.606384,236.742065 401.304932,235.892349 406.682495,237.245560 
	C406.077393,238.949966 405.806854,240.864365 404.822632,242.283997 
	C400.652435,248.299362 401.747589,253.813751 405.895386,259.250061 
	C406.564514,260.127045 406.908295,261.252258 407.756317,262.986115 
	C403.831238,262.250122 399.709930,265.389862 397.466980,259.717590 
z"/>
<path fill="#060606" opacity="1.000000" stroke="none" 
	d="
M356.195862,253.182495 
	C357.852234,248.971100 359.518066,245.176239 360.848511,241.267227 
	C361.827057,238.392105 362.857208,236.672379 366.570374,236.659424 
	C370.271942,236.646515 370.935638,238.717590 371.887421,241.217300 
	C374.585938,248.304581 377.330353,255.374390 380.231964,262.905975 
	C376.568512,262.519928 373.099884,264.752441 370.518829,260.073761 
	C369.821838,258.810242 362.912292,258.828003 362.224091,260.092163 
	C359.778717,264.584137 356.320038,262.450134 352.550598,263.126373 
	C353.846832,259.590759 354.954163,256.570404 356.195862,253.182495 
M363.896149,252.734314 
	C365.481873,253.218765 367.067596,253.703217 369.600098,254.476913 
	C368.324127,250.948395 367.506531,248.687424 366.443390,245.747452 
	C365.453918,248.258835 364.730103,250.095871 363.896149,252.734314 
z"/>
<path fill="#060606" opacity="1.000000" stroke="none" 
	d="
M298.277496,262.867706 
	C300.813293,254.671036 303.442108,246.445679 307.000946,238.644577 
	C307.741089,237.022141 311.925781,236.971054 314.617249,236.167679 
	C318.269989,245.568176 321.569214,254.058960 325.028992,262.962921 
	C321.382721,262.425934 317.697144,264.900879 315.252136,259.941498 
	C314.681671,258.784363 307.444946,258.885742 306.822601,260.151733 
	C304.720032,264.429016 301.489502,262.511871 298.277496,262.867706 
M308.822510,251.979935 
	C310.289124,252.812408 311.755737,253.644882 313.222351,254.477356 
	C313.458618,254.089966 313.694855,253.702576 313.931091,253.315186 
	C313.145966,251.153168 312.360840,248.991150 311.211609,245.826401 
	C310.193939,248.319336 309.596191,249.783585 308.822510,251.979935 
z"/>
<path fill="#0A0A0A" opacity="1.000000" stroke="none" 
	d="
M337.040955,263.014099 
	C336.065063,262.715759 335.064789,262.341370 335.098328,262.134705 
	C336.587189,252.960464 330.355347,246.603195 326.828888,239.270187 
	C326.554657,238.699936 326.256653,238.141098 325.940186,237.518997 
	C332.969543,236.097031 332.969543,236.097031 338.821472,245.684875 
	C341.590942,240.749771 343.200104,233.998642 351.357391,237.436798 
	C348.443817,245.715088 340.286560,252.269821 342.824646,262.756348 
	C340.687500,262.860626 339.093170,262.938446 337.040955,263.014099 
z"/>
<path fill="#DBDBDB" opacity="1.000000" stroke="none" 
	d="
M226.956100,250.006256 
	C226.956100,254.484406 226.956100,258.467926 226.956100,262.427124 
	C224.699081,262.604736 224.699081,262.604736 222.797821,251.426712 
	C218.728699,251.426712 214.615997,251.426712 210.442657,251.426712 
	C208.003265,254.777740 212.255295,260.470154 206.372238,264.115051 
	C206.372238,254.351669 206.372238,245.908798 206.372238,237.457245 
	C209.534775,237.064346 209.534775,237.064346 209.920593,247.592133 
	C214.263596,247.592133 218.631790,247.592133 223.000580,247.592133 
	C224.123123,237.321228 224.123123,237.321228 226.956100,237.151764 
	C226.956100,241.279266 226.956100,245.395447 226.956100,250.006256 
z"/>
<path fill="#EAEAEA" opacity="1.000000" stroke="none" 
	d="
M138.365280,247.457825 
	C136.061234,241.683365 137.562485,238.316757 142.734802,236.817841 
	C149.595200,234.829712 154.500061,237.514633 155.980865,244.916687 
	C154.506012,244.330948 153.425018,244.060669 152.541245,243.486679 
	C152.065857,243.177917 152.035736,241.926819 151.621811,241.821808 
	C148.887161,241.128006 146.106964,240.298401 143.332260,240.263855 
	C142.463516,240.253036 140.636627,243.461517 140.827911,243.657913 
	C142.427277,245.299988 144.264999,246.825851 146.286438,247.910324 
	C148.591721,249.147110 151.357071,249.572601 153.567505,250.929123 
	C156.892944,252.969864 157.489777,257.646698 154.930756,260.464325 
	C151.580917,264.152740 147.152817,263.962311 142.889572,262.862274 
	C139.281601,261.931305 137.015182,259.420624 136.780045,253.847534 
	C138.708832,255.400024 139.678329,256.287811 140.753555,257.020386 
	C142.320099,258.087708 144.033966,259.957550 145.556763,259.838959 
	C148.031219,259.646118 151.858917,258.696899 152.515152,257.038208 
	C153.913239,253.504410 150.200165,252.813675 147.560440,251.789871 
	C144.513016,250.607986 141.586731,249.113739 138.365280,247.457825 
z"/>
<path fill="#EAEAEA" opacity="1.000000" stroke="none" 
	d="
M181.882721,244.617325 
	C184.490585,246.213058 186.884659,247.626495 189.451096,248.572113 
	C193.269653,249.979111 197.342651,251.017883 197.378922,256.170319 
	C197.406525,260.090454 195.062958,262.218231 191.417480,263.082489 
	C185.894318,264.391937 180.769470,262.671722 178.696060,258.714966 
	C178.187134,257.743774 178.062424,256.571228 178.611984,254.614670 
	C179.645416,255.401917 180.997192,255.985382 181.655045,257.013062 
	C184.021408,260.709808 187.514801,260.519073 190.965561,259.710236 
	C192.115265,259.440735 193.560760,257.818176 193.712799,256.661865 
	C193.857300,255.562592 192.776535,253.717682 191.726883,253.165375 
	C189.411255,251.946915 186.770355,251.352005 184.272568,250.473068 
	C180.560165,249.166718 177.503281,247.174835 178.102997,242.634140 
	C178.690598,238.185257 182.156479,236.842026 185.987549,236.321167 
	C192.083649,235.492432 196.150192,238.600998 196.661926,245.615204 
	C194.948227,244.067886 194.096878,242.841568 192.933777,242.344299 
	C190.508850,241.307495 187.912704,240.069534 185.399841,240.097076 
	C184.166992,240.110565 182.963058,242.765961 181.882721,244.617325 
z"/>
<path fill="#F0F0F0" opacity="1.000000" stroke="none" 
	d="
M117.420540,237.086685 
	C119.016113,237.874847 120.858215,238.594879 121.426590,239.878784 
	C124.709793,247.295242 127.692245,254.844833 130.135895,263.357849 
	C128.994995,262.575348 127.111031,261.987854 126.845406,260.975677 
	C125.845116,257.163849 123.315155,256.909454 120.080307,256.989929 
	C115.881348,257.094360 111.323326,255.944611 110.105385,262.035217 
	C109.991409,262.605164 108.098564,262.819366 106.066605,263.541931 
	C110.047112,254.048767 113.562920,245.663895 117.420540,237.086685 
M116.750137,246.368332 
	C115.766510,248.751221 114.782875,251.134109 113.746925,253.643753 
	C117.215172,253.643753 120.185333,253.643753 123.652649,253.643753 
	C121.959068,249.522186 120.464302,245.884491 118.699318,241.589157 
	C117.877678,243.544785 117.433517,244.601959 116.750137,246.368332 
z"/>
<path fill="#F0F0F0" opacity="1.000000" stroke="none" 
	d="
M168.948639,254.917969 
	C168.948639,257.722473 168.948639,260.041595 168.948639,262.360718 
	C168.554794,262.653015 168.160950,262.945312 167.767105,263.237610 
	C167.033615,262.315857 165.688446,261.409851 165.664246,260.469849 
	C165.484329,253.485519 165.487259,246.492554 165.653656,239.507568 
	C165.678162,238.478363 166.867630,237.476913 167.518112,236.462616 
	C167.994949,236.667313 168.471802,236.872009 168.948639,237.076706 
	C168.948639,242.862000 168.948639,248.647293 168.948639,254.917969 
z"/>
<path fill="#DBDBDB" opacity="1.000000" stroke="none" 
	d="
M363.951233,252.333618 
	C364.730103,250.095871 365.453918,248.258835 366.443390,245.747452 
	C367.506531,248.687424 368.324127,250.948395 369.600098,254.476913 
	C367.067596,253.703217 365.481873,253.218765 363.951233,252.333618 
z"/>
<path fill="#DBDBDB" opacity="1.000000" stroke="none" 
	d="
M308.910461,251.613892 
	C309.596191,249.783585 310.193939,248.319336 311.211609,245.826401 
	C312.360840,248.991150 313.145966,251.153168 313.931091,253.315186 
	C313.694855,253.702576 313.458618,254.089966 313.222351,254.477356 
	C311.755737,253.644882 310.289124,252.812408 308.910461,251.613892 
z"/>
<path fill="#0A0A0A" opacity="1.000000" stroke="none" 
	d="
M116.869751,246.013733 
	C117.433517,244.601959 117.877678,243.544785 118.699318,241.589157 
	C120.464302,245.884491 121.959068,249.522186 123.652649,253.643753 
	C120.185333,253.643753 117.215172,253.643753 113.746925,253.643753 
	C114.782875,251.134109 115.766510,248.751221 116.869751,246.013733 
z"/>
</svg>